<svg xmlns="http://www.w3.org/2000/svg" viewBox="0 0 150 150"><defs><style>.cls-1{fill:#231f20;opacity:0;}.cls-2{fill:#663695;}</style></defs><title>logo</title><g id="Calque_2" data-name="Calque 2"><g id="Calque_1-2" data-name="Calque 1"><rect class="cls-1" width="150" height="150"/><path class="cls-2" d="M112.83,81.61c-3-3.87-7.59-7.08-13.58-9.58,7.75-5.21,11.68-11.9,11.68-19.94,0-7-2.85-13.14-8.46-18.3s-12.87-7.72-21.7-7.72H37.87a6.5,6.5,0,0,0-4.42,1.28,4.85,4.85,0,0,0,0,7.07,6.48,6.48,0,0,0,4.42,1.28h7.78v78.6H37.87a6.43,6.43,0,0,0-4.42,1.29,4.78,4.78,0,0,0,0,7,6.28,6.28,0,0,0,4.44,1.35h51a29.51,29.51,0,0,0,15.3-4.18,28.46,28.46,0,0,0,10.45-10.13,26.07,26.07,0,0,0,3.44-13.17A23.67,23.67,0,0,0,112.83,81.61ZM55.28,68.32V35.7H80.93c6.06,0,11,1.7,14.74,5s5.55,6.88,5.55,10.77a14.82,14.82,0,0,1-2.54,8,16.42,16.42,0,0,1-7.11,6.05A33.21,33.21,0,0,1,78,68.32ZM105,87.37a15.41,15.41,0,0,1,3.34,9.24,16.2,16.2,0,0,1-2.32,8.23,19.28,19.28,0,0,1-6.91,6.74,20.57,20.57,0,0,1-10.72,2.72H55.28V78H78.41c7.31,0,13.1.81,17.2,2.42A20.85,20.85,0,0,1,105,87.37Z"/></g></g></svg>